<svg xmlns="http://www.w3.org/2000/svg" width="512" height="512"><path fill="#FCDD06" d="M512 473c0 21.539-17.461 39-39 39H39c-21.539 0-39-17.461-39-39V39C0 17.461 17.461 0 39 0h434c21.539 0 39 17.461 39 39v434z"/><path d="M496.86 384.5v88.41c0 12.939-10.49 23.439-23.44 23.439H38.57c-12.83 0-23.25-10.31-23.43-23.09-.01-.12-.01-.229-.01-.35V381.4h8.26l44.69-80.591h103.84l44.69 83.69h15.24v-39.78h.06a30.83 30.83 0 01-.06-1.93c0-20.23 17.73-37.11 41.33-41.09v-9.931c0-5.92 4.801-10.71 10.71-10.71 5.92 0 10.721 4.79 10.721 10.71v9.931c23.609 3.99 41.33 20.859 41.33 41.09 0 1-.04 1.99-.131 2.97h.131v38.74h57.6v-73.1l11.88-62.76 11.63 29.959 24.28-150.07 24.28 150.59 11.88-29.97 11.88 61.48v73.87h7.489z"/><path d="M163.605 68.493c-.57 64.684 13.729 158.053 115.73 158.951 102.002.898 117.941-92.204 118.512-156.888"/><path fill="none" stroke="#000" stroke-width="30" stroke-linejoin="round" d="M194 97.021H99.969C115.382 163.656 202 172.113 220 172"/></svg>